# xmcd CD database file generated by Grip 3.0.3
#
# Track frame offsets:
#       150
#       16200
#       34765
#       51312
#
# Disc length: 906 seconds
#
# Revision: 8
# Processed by: cddbd v1.4PL0 Copyright (c) Steve Scherf et al.
# Submitted via: Grip 3.0.3
#
DISCID=2a038804
DTITLE=Shania Twain - When
DYEAR=1998
DGENRE=Country
TTITLE0=When (Int'l Radio Edit)
TTITLE1=You're Still The One
TTITLE2=Don't Be Stupid (You Know I Love You)
TTITLE3=That Don't Impress Me Much (Int'l LP Version)
EXTD=
EXTT0=
EXTT1=
EXTT2=
EXTT3=
PLAYORDER=
